<?xml version="1.0" encoding="utf-8"?>
<!-- Generator: Adobe Illustrator 24.3.0, SVG Export Plug-In . SVG Version: 6.00 Build 0)  -->
<svg version="1.1" xmlns="http://www.w3.org/2000/svg" xmlns:xlink="http://www.w3.org/1999/xlink" x="0px" y="0px"
	 viewBox="0 0 14.4 18.5" style="enable-background:new 0 0 14.4 18.5;" xml:space="preserve">
<style type="text/css">
	
		.st0{fill:#C2C2C2;fill-opacity:0;stroke:#C2C2C2;stroke-width:0.1417;stroke-linecap:round;stroke-linejoin:round;stroke-miterlimit:10;}
	
		.st1{fill:#C2C200;fill-opacity:0;stroke:#C2C200;stroke-width:0.1417;stroke-linecap:round;stroke-linejoin:round;stroke-miterlimit:10;}
	.st2{fill:none;stroke:#000000;stroke-width:0.1417;stroke-linecap:round;stroke-linejoin:round;stroke-miterlimit:10;}
</style>
<g id="Layer_1" xmlns:svg="http://www.w3.org/2000/svg">
	<desc>Picture generated by PCBNEW</desc>
	<g transform="translate(0 0) scale(1 1)">
	</g>
	<g>
		<path class="st0" d="M-147.6,34.5h39"/>
		<path class="st0" d="M-108.6,34.5V24.3"/>
		<path class="st0" d="M-108.6,24.3h-39"/>
		<path class="st0" d="M-147.6,24.3v10.2"/>
		<circle class="st0" cx="-101.2" cy="24.5" r="8.4"/>
		<circle class="st0" cx="-155.1" cy="24.5" r="8.4"/>
		<circle class="st0" cx="-101.2" cy="-29.3" r="8.4"/>
		<circle class="st0" cx="-155.1" cy="-29.3" r="8.4"/>
		<path class="st0" d="M-124.4,1.2v-7.1"/>
		<path class="st0" d="M-124.4-5.9h-7.5"/>
		<path class="st0" d="M-131.9-5.9v7.1"/>
		<path class="st0" d="M-131.9,1.2h7.5"/>
		<path class="st0" d="M-103.3,14.7h-2.7"/>
		<path class="st0" d="M-105.9,14.7V9.4"/>
		<path class="st0" d="M-105.9,9.4h2.7"/>
		<path class="st0" d="M-103.3,9.4v5.3"/>
		<path class="st0" d="M-95.9,14.7h-2.7"/>
		<path class="st0" d="M-98.6,14.7V9.4"/>
		<path class="st0" d="M-98.6,9.4h2.7"/>
		<path class="st0" d="M-95.9,9.4v5.3"/>
		<path class="st0" d="M-113.5,14.7h-2.7"/>
		<path class="st0" d="M-116.1,14.7V9.4"/>
		<path class="st0" d="M-116.1,9.4h2.7"/>
		<path class="st0" d="M-113.5,9.4v5.3"/>
		<path class="st0" d="M-71.5-5.1v-2.7"/>
		<path class="st0" d="M-71.5-7.7h5.3"/>
		<path class="st0" d="M-66.2-7.7v2.7"/>
		<path class="st0" d="M-66.2-5.1h-5.3"/>
		<path class="st0" d="M-111.2,8.7h18.6"/>
		<path class="st0" d="M-92.6,8.7v-22.1"/>
		<path class="st0" d="M-92.6-13.4h-18.6"/>
		<path class="st0" d="M-111.2-13.4V8.7"/>
		<path class="st0" d="M-145.1-13.4h-18.6"/>
		<path class="st0" d="M-163.7-13.4V8.7"/>
		<path class="st0" d="M-163.7,8.7h18.6"/>
		<path class="st0" d="M-145.1,8.7v-22.1"/>
		<path class="st0" d="M-82.8-3.5v-4.1"/>
		<path class="st0" d="M-82.8-7.6h8.4"/>
		<path class="st0" d="M-74.4-7.6v4.1"/>
		<path class="st0" d="M-74.4-3.5h-8.4"/>
		<path class="st0" d="M-83,2.3v-2.7"/>
		<path class="st0" d="M-83-0.4h5.3"/>
		<path class="st0" d="M-77.7-0.4v2.7"/>
		<path class="st0" d="M-77.7,2.3H-83"/>
	</g>
	<g>
		<path class="st1" d="M-92.7,33h-70.9"/>
		<path class="st1" d="M-92.7-37.8V33"/>
		<path class="st1" d="M-163.6-37.8h70.9"/>
		<path class="st1" d="M-163.6,33v-70.9"/>
	</g>
</g>
<g id="slot">
	<rect x="-123.8" y="-5.9" class="st2" width="3.4" height="7.1"/>
	
		<rect x="-124.7" y="-8.1" transform="matrix(0.7071 -0.7071 0.7071 0.7071 -30.7029 -89.1946)" class="st2" width="3.4" height="1.1"/>
	<circle class="st2" cx="-122.1" cy="-5.9" r="1.7"/>
	<circle class="st2" cx="-123.4" cy="-7.9" r="1.7"/>
	<circle class="st2" cx="-123.8" cy="-5.9" r="3.4"/>
	<rect x="-123.8" y="-5.9" class="st2" width="3.4" height="7.1"/>
</g>
<g id="Layer_3">
	<path class="st2" d="M-120.4-5.9v7.1c0,0.9-0.4,1.8-1,2.4l-0.8,0.8c-0.3,0.3-0.7,0.5-1.2,0.5c-0.4,0-0.8-0.1-1-0.4
		c-0.4-0.3-0.7-0.8-0.7-1.3c0-0.5,0.2-0.9,0.5-1.2l0.8-0.8v-7.1l-0.8-0.8v0c-0.3-0.3-0.5-0.7-0.5-1.2c0-0.5,0.3-1,0.7-1.3
		c0.3-0.2,0.6-0.4,1-0.4c0.5,0,0.9,0.2,1.2,0.5l0.8,0.8C-120.8-7.7-120.4-6.9-120.4-5.9z"/>
	<path class="st2" d="M9.6,5.7v7.1c0,0.9-0.4,1.8-1,2.4L7.8,16c-0.3,0.3-0.7,0.5-1.2,0.5c-0.4,0-0.8-0.1-1-0.4
		c-0.4-0.3-0.7-0.8-0.7-1.3c0-0.5,0.2-0.9,0.5-1.2l0.8-0.8V5.7L5.4,4.9v0C5.1,4.6,4.9,4.2,4.9,3.7c0-0.5,0.3-1,0.7-1.3
		C5.8,2.1,6.2,2,6.6,2C7,2,7.5,2.2,7.8,2.5l0.8,0.8C9.2,3.9,9.6,4.8,9.6,5.7z"/>
</g>
</svg>
